<?xml version="1.0" encoding="utf-8"?>
<svg xmlns="http://www.w3.org/2000/svg" viewBox="0 0 160 53">
	<path fill-rule="evenodd"
		d="M0 0h52.414v52.414H0V0Zm20.384 34.19v7.33c0 1.194.967 2.159 2.159 2.159h7.329a2.16 2.16 0 0 0 2.16-2.16v-3.665c0-1.61.65-3.066 1.705-4.118a5.804 5.804 0 0 1 4.118-1.706h3.665a2.16 2.16 0 0 0 2.159-2.16v-7.327a2.16 2.16 0 0 0-2.16-2.16h-7.326a2.16 2.16 0 0 0-2.159 2.16v3.842a5.644 5.644 0 0 1-5.643 5.645h-3.842a2.16 2.16 0 0 0-2.16 2.16h-.005ZM8.736 29.871V22.54a2.16 2.16 0 0 1 2.16-2.16h3.847a5.644 5.644 0 0 0 5.644-5.643v-3.842c0-1.191.964-2.159 2.159-2.159h7.326a2.16 2.16 0 0 1 2.16 2.16v7.328a2.16 2.16 0 0 1-2.16 2.16h-3.665a5.805 5.805 0 0 0-4.117 1.706 5.795 5.795 0 0 0-1.706 4.117v3.665a2.16 2.16 0 0 1-2.16 2.16h-7.329a2.159 2.159 0 0 1-2.159-2.16Z">
	</path>
	<g clip-path="url(#a)">
		<path
			d="M117.773 7.508v9.247h6.796v5.042h-6.796v18.572c0 1.723.352 2.86 1.061 3.42.71.558 1.989.838 3.832.838h1.903v5.035h-2.161c-2.831 0-5.026-.226-6.59-.672-1.565-.459-2.719-1.33-3.448-2.62a6.817 6.817 0 0 1-.676-1.743c-.279-1.071-.418-2.355-.418-3.872V21.79h-4.767v-5.042h4.767V9.783l6.497-2.275Zm35.789-4.198h6.431v46.22h-6.431V3.31Zm-17.755 25.565v-12.12h-6.498v32.774h6.498V37.003c.04-3.658.524-6.572 1.445-8.747.922-2.175 2.413-3.812 4.469-4.91 2.062-1.097 4.826-1.755 8.301-1.968v-5.681c-2.957 0-5.364.432-7.207 1.29-1.843.859-3.302 2.249-4.376 4.165-1.074 1.915-1.863 4.483-2.38 7.716h-.259l.007.007Zm-32.262-8.955c.034.22.067.453.093.686.013.087.02.173.033.26M96.319 31.05h6.974c-.053.3-.099.612-.132.924-.02.153-.04.307-.053.46-.053.419-.113.811-.179 1.17-.497 2.754-1.459 5.235-2.878 7.457-1.697 2.654-3.998 4.73-6.895 6.22-2.89 1.49-6.252 2.242-10.064 2.242h-1.253c-4.197 0-7.903-.952-11.112-2.84-3.209-1.897-5.682-4.59-7.426-8.083-1.743-3.492-2.612-7.597-2.612-12.313s.869-8.8 2.612-12.253c1.744-3.446 4.204-6.1 7.4-7.956 3.182-1.836 6.895-2.767 11.131-2.767h1.253c3.82 0 7.187.745 10.104 2.242 2.918 1.496 5.225 3.572 6.922 6.22 1.545 2.407 2.539 5.115 2.997 8.148.033.22.066.452.093.685.013.087.02.173.033.26.04.299.066.611.093.924h-6.935c-.04-.313-.087-.625-.133-.924h-.007a1.378 1.378 0 0 0-.026-.167l-.438-2.009s0-.02-.006-.04c-.697-2.467-1.936-4.55-3.713-6.246-2.287-2.188-5.278-3.28-8.97-3.28h-1.254c-2.81 0-5.297.686-7.458 2.056-2.155 1.37-3.826 3.346-5 5.934-1.18 2.594-1.763 5.647-1.763 9.186 0 3.54.584 6.62 1.764 9.253 1.173 2.628 2.844 4.65 4.999 6.06 2.161 1.41 4.647 2.116 7.459 2.116h1.252c3.607 0 6.558-1.105 8.845-3.313a13.96 13.96 0 0 0 2.771-3.752v-.007c.338-.671.63-1.376.862-2.115.04-.113.067-.22.1-.332.205-.679.37-1.397.49-2.142a.23.23 0 0 1 .014-.067h.052c.027-.313.054-.625.093-.925l-.006-.026Z">
		</path>
	</g>
</svg>