<?xml version="1.0" encoding="utf-8"?>
<!-- Generator: Adobe Illustrator 27.5.0, SVG Export Plug-In . SVG Version: 6.00 Build 0)  -->
<svg version="1.1" id="katman_1" xmlns="http://www.w3.org/2000/svg" xmlns:xlink="http://www.w3.org/1999/xlink" x="0px" y="0px"
	 viewBox="0 0 841.89 595.28" style="enable-background:new 0 0 841.89 595.28;" xml:space="preserve">
<g>
	<g>
		<path d="M469.1,327.8c-42.14,24.24-90.49,35.53-139.01,32.46c-37.54,0.17-73.48-15.16-99.33-42.38
			c-19.18-24.24-26.86-55.63-21.03-85.99c1.67-11.31,5.08-22.3,10.11-32.56l0.69-1.41c17.73-33.68,43.94-62.16,76.03-82.63
			c65.61-41.81,148.28-46.36,218.09-12.03c34.2,16.81,63.44,42.21,84.85,73.73c43.37,63.77,49.42,145.85,15.84,215.29
			c-16.57,34.24-41.79,63.57-73.16,85.08c-31.54,21.61-68.13,34.72-106.22,38.05l2.33,26.5c42.76-3.75,83.83-18.47,119.24-42.75
			c35.23-24.14,63.56-57.07,82.17-95.51c37.67-77.94,30.87-170.06-17.84-241.62c-24.06-35.37-56.9-63.88-95.31-82.72
			c-78.42-38.48-171.23-33.25-244.83,13.8c-35.99,23-65.35,54.99-85.2,92.81l-0.94,1.9c-6.24,12.74-10.46,26.38-12.5,40.42
			c-6.9,37.8,2.9,76.74,26.87,106.77c30.49,33.17,73.51,52.02,118.56,51.97c58.67,3.66,116.95-11.78,166.11-44.01L469.1,327.8z"/>
		<path d="M520.58,357.95c-49.92,40.22-111.73,62.83-175.82,64.33c-105.69,5.77-149.76-28.18-150.16-28.53l-8.53,10.4l8.59-10.22
			l-17.24,20.43c1.87,1.53,44.11,35.28,143.33,35.28c8.13,0,16.66,0,25.54-0.69c114.12-6.29,176.82-55.49,198.66-76.51
			L520.58,357.95z"/>
		<path d="M566.39,385.42c-14.52,18.84-32.34,34.88-52.59,47.35c-71.52,45.62-162.49,51.51-226.19,48.33l-1.29,26.64
			c10.74,0.52,20.98,0.75,30.97,0.75c179.61,0,252.19-80.85,272.47-109.71l-23.38-13.57"/>
		<path d="M559.55,284.68c11.77-0.14,21.19-9.8,21.04-21.56c-0.14-11.77-9.8-21.19-21.56-21.04c-11.66,0.14-21.04,9.64-21.04,21.3
			C538.08,275.21,547.72,284.73,559.55,284.68z"/>
	</g>
</g>
</svg>
