<?xml version="1.0" encoding="utf-8"?>
<svg version="1.0" viewBox="0 0 480.000000 480.000000"  xmlns="http://www.w3.org/2000/svg">
  <defs></defs>
  <ellipse style="paint-order: fill; fill: rgb(236, 124, 53);" cx="313.702" cy="158.435" rx="66.132" ry="66.132"></ellipse>
  <g transform="translate(0.000000,480.000000) scale(0.100000,-0.100000)" fill="#000000" stroke="none">
    <path d="M0 2400 l0 -2400 2400 0 2400 0 0 2400 0 2400 -2400 0 -2400 0 0 -2400z m2647 257 l943 -942 0 -233 c0 -142 -4 -241 -10 -253 -10 -18 -24 -19 -238 -19 l-226 0 -352 351 c-275 275 -356 350 -370 345 -11 -3 -100 -87 -199 -186 l-180 -180 -5 -155 c-4 -124 -8 -158 -20 -165 -24 -15 -763 -13 -778 2 -9 9 -12 79 -12 252 l0 240 345 346 c190 190 345 352 345 360 0 8 -155 170 -345 360 l-345 346 0 225 c0 162 3 228 12 237 9 9 79 12 252 12 l241 0 942 -943z m943 914 c6 -12 10 -106 10 -237 l0 -218 -262 -263 c-192 -193 -268 -263 -283 -261 -19 3 -20 13 -25 204 -4 150 -9 205 -19 217 -12 15 -40 17 -210 17 -194 0 -221 4 -221 34 0 6 116 126 257 268 l257 258 243 0 c229 0 243 -1 253 -19z" style=""></path>
  </g>
</svg>