<svg viewBox="0 0 256 256" xmlns="http://www.w3.org/2000/svg">
  <path fill-rule="evenodd" clip-rule="evenodd" d="M128 256C198.692 256 256 198.692 256 128C256 57.3075 198.692 0 128 0C57.3075 0 0 57.3075 0 128C0 198.692 57.3075 256 128 256ZM128 202C168.869 202 202 168.869 202 128C202 87.1309 168.869 54 128 54C87.1309 54 54 87.1309 54 128C54 168.869 87.1309 202 128 202ZM200 176C200 189.255 189.255 200 176 200C162.745 200 152 189.255 152 176C152 162.745 162.745 152 176 152C189.255 152 200 162.745 200 176Z"/>
</svg>
