<svg xmlns="http://www.w3.org/2000/svg" viewBox="0 0 1024 1024">
  <defs>
    <mask id="cutout1">
      <rect width="1024" height="1024" fill="white" />
      <path d="M404.9 468 512 360.9l107.1 107.2 62.3-62.3L512 236.3 342.6 405.7z" fill="black" />
      <path d="M254.6 467.9h88.1V556h-88.1z" transform="rotate(-45.001 298.629 511.998)" fill="black" />
      <path d="M404.9 556 512 663.1l107.1-107.2 62.4 62.3h-.1L512 787.7 342.6 618.3l-.1-.1z" fill="black" />
      <path d="M681.3 468h88.1v88.1h-88.1z" transform="rotate(-45.001 725.364 512.032)" fill="black" />
      <path d="M575.2 512 512 448.7l-46.7 46.8-5.4 5.3-11.1 11.1-.1.1.1.1 63.2 63.2 63.2-63.3z" fill="black" />
    </mask>
  </defs>
  <circle cx="512" cy="512" r="512" mask="url(#cutout1)" />
</svg>
