<svg xmlns="http://www.w3.org/2000/svg" viewBox="0 0 2496 2496">
  <path
    d="M1248,0C558.7,0,0,558.7,0,1248s558.7,1248,1248,1248,1248-558.7,1248-1248S1937.3,0,1248,0ZM2052.32,774.92v213.25l-181.98,107.13v-213.25l-181.09-107.12,181.09-107.12,181.98,107.12ZM1247.56,301.95l492.93,290.1-181.09,107.12-311.84-183.86-310.95,183.86-181.09-107.12,492.04-290.1ZM1429.54,774.92l-181.98,107.12-181.09-107.12,181.09-107.12,181.98,107.12ZM443.56,774.92l181.09-107.12,181.98,107.12-181.98,107.12v213.25l-181.09-107.12v-213.25ZM755.51,1323.85l181.09,107.12v213.25l-181.09-106.13v-214.25ZM936.61,2011.18l-492.93-289.1v-581.09l180.98,107.01,1,365.96,310.95,182.98v214.25ZM1429.54,2086.92l-181.98,107.13-181.09-107.12v-213.25l181.09,107.12,181.98-107.12v213.25ZM1429.65,1721.97l-181.09,106.13-181.09-106.13v-366.84l-311.84-182.98v-214.25l181.87-107.12,309.95,183.86,311.84-183.86,181.98,107.12h-.78l1,214.25-311.84,182.98v366.84ZM1559.39,1430.98l181.09-107.12v214.25l-181.09,106.13v-213.25ZM2052.44,1721.97l-492.93,289.1v-214.25l310.84-182.87,1-365.96,181.09-107.12v581.09Z" />
</svg>
