<svg viewBox="0 0 24 24" xmlns="http://www.w3.org/2000/svg">
    <circle cx="12" cy="12" r="11" fill="white"/>
    <path fill-rule="evenodd" clip-rule="evenodd"
          d="M12 0C5.37212 0 0 5.37212 0 12C0 18.6279 5.37212 24 12 24C18.6279 24 24 18.6279 24 12C24 5.37212 18.6279 0 12 0ZM19.7338 7.45115V9.50163L17.984 10.5317V8.48125L16.2428 7.45125L17.984 6.42125L19.7338 7.45125V7.45115ZM11.9958 2.90337L16.7355 5.69279L14.9942 6.72279L11.9958 4.9549L9.00587 6.72279L7.26462 5.69279L11.9958 2.90337ZM13.7456 7.45115L11.9958 8.48115L10.2545 7.45115L11.9958 6.42115L13.7456 7.45115ZM4.265 7.45115L6.00625 6.42115L7.75606 7.45115L6.00625 8.48115V10.5316L4.265 9.50163V7.45115ZM7.26452 12.7293L9.00577 13.7593V15.8098L7.26452 14.7893V12.7292V12.7293ZM9.00587 19.3383L4.26615 16.5585V10.9711L6.00635 12L6.01596 15.5188L9.00587 17.2783V19.3384V19.3383ZM13.7456 20.0665L11.9958 21.0966L10.2545 20.0666V18.0162L11.9958 19.0462L13.7456 18.0162V20.0666V20.0665ZM13.7466 16.5574L12.0054 17.5779L10.2641 16.5574V13.0301L7.26567 11.2707V9.21058L9.01442 8.18058L11.9947 9.94846L14.9932 8.18058L16.743 9.21058H16.7355L16.7451 11.2707L13.7466 13.0301V16.5574ZM14.9941 13.7594L16.7354 12.7294V14.7895L14.9941 15.81V13.7595V13.7594ZM19.735 16.5574L14.9953 19.3372V17.2771L17.9841 15.5188L17.9937 11.9999L19.735 10.9699V16.5573V16.5574Z"
          fill="#F0B90B"/>
</svg>
