<svg xmlns="http://www.w3.org/2000/svg" viewBox="0 0 996.28 996.28">
  <g image-rendering="optimizeQuality" shape-rendering="geometricPrecision" text-rendering="geometricPrecision">
    <path d="M495.42,326.42l-29.5,118.3c33.45,8.34,136.57,42.34,153.27-24.59h0c17.4-69.81-90.33-85.38-123.78-93.71Z" />
    <path
      d="M498.14,0C223.02,0,0,223.02,0,498.14s223.02,498.14,498.14,498.14,498.14-223.02,498.14-498.14S773.25,0,498.14,0ZM736.26,421.2h.02c-7.78,52.62-36.94,78.08-75.66,87.01,53.16,27.68,80.21,70.12,54.44,143.7-31.98,91.39-107.96,99.1-209,79.98l-24.52,98.28-59.26-14.77,24.2-96.96c-15.36-3.82-31.05-7.87-47.22-12.26l-24.28,97.41-59.19-14.77,24.52-98.46c-13.84-3.54-27.9-7.3-42.25-10.9l-77.11-19.22,29.42-67.83s43.66,11.61,43.07,10.75c16.78,4.15,24.22-6.79,27.15-14.08l38.75-155.35c2.18.52,4.29,1.06,6.26,1.55-2.36-.95-4.51-1.56-6.16-1.98l27.65-110.9c.72-12.59-3.62-28.47-27.61-34.46.93-.62-43.04-10.7-43.04-10.7l15.76-63.29,81.72,20.41-.07.31c12.28,3.06,24.95,5.96,37.84,8.89l24.28-97.31,59.22,14.77-23.8,95.41c15.9,3.63,31.9,7.29,47.48,11.18l23.63-94.78,59.26,14.77-24.27,97.34c74.81,25.77,129.52,64.4,118.78,136.26h0Z" />
    <path
      d="M451.04,504.44l-32.54,130.44c40.17,9.97,164.06,49.75,182.37-23.83h0c19.14-76.74-109.67-96.58-149.83-106.61Z" />
    <path fill="transparent"
      d="M617.48,284.94l24.27-97.34-59.26-14.77-23.63,94.78c-15.58-3.89-31.58-7.55-47.48-11.18l23.8-95.41-59.22-14.77-24.28,97.31c-12.89-2.94-25.55-5.84-37.84-8.89l.07-.31-81.72-20.41-15.76,63.29s43.96,10.08,43.04,10.7c24,5.99,28.33,21.87,27.61,34.46l-27.65,110.9c1.65.42,3.8,1.03,6.16,1.98-1.98-.49-4.08-1.03-6.26-1.55l-38.75,155.35c-2.93,7.29-10.38,18.23-27.15,14.08.59.86-43.07-10.75-43.07-10.75l-29.42,67.83,77.11,19.22c14.35,3.6,28.4,7.36,42.25,10.9l-24.52,98.46,59.19,14.77,24.28-97.41c16.17,4.39,31.86,8.44,47.22,12.26l-24.2,96.96,59.26,14.77,24.52-98.28c101.04,19.12,177.02,11.41,209-79.98,25.77-73.58-1.28-116.03-54.44-143.7,38.72-8.93,67.88-34.39,75.66-87h-.02s0,0,0,0c10.75-71.86-43.96-110.49-118.78-136.26ZM600.87,611.05h0c-18.31,73.58-142.2,33.81-182.37,23.83l32.54-130.44c40.16,10.03,168.97,29.87,149.83,106.61ZM619.2,420.14h0c-16.71,66.93-119.82,32.93-153.27,24.59l29.5-118.3c33.45,8.34,141.17,23.9,123.78,93.71Z" />
  </g>
</svg>
