<svg viewBox="0 0 24 24" xmlns="http://www.w3.org/2000/svg">
    <circle cx="12" cy="12" r="11" fill="white" />
    <g fill="black">
        <path
            d="M9.44003 9.53999C9.34403 9.40239 9.24723 9.26399 9.14723 9.12079C9.13363 9.14079 9.12563 9.14879 9.12083 9.15919C8.64483 10.092 8.16963 11.0248 7.69283 11.9576C7.66163 12.0192 7.66723 12.072 7.69923 12.1312C7.91283 12.5304 8.12483 12.932 8.33843 13.332C8.55203 13.7352 8.76723 14.1368 8.98723 14.5528C9.00643 14.5272 9.02003 14.512 9.03123 14.4952C9.65443 13.5888 10.2768 12.6816 10.9016 11.776C10.9392 11.7224 10.9328 11.688 10.8976 11.6384C10.4104 10.94 9.92563 10.24 9.44003 9.54079V9.53999Z" />
        <path
            d="M12 0C5.3728 0 0 5.3728 0 12C0 18.6272 5.3728 24 12 24C18.6272 24 24 18.6272 24 12C24 5.3728 18.6272 0 12 0ZM17.7808 18.9272C17.224 18.9272 16.668 18.9272 16.1112 18.9288C16.048 18.9288 16.0136 18.9072 15.9792 18.8536C15.34 17.8616 14.6992 16.8712 14.0584 15.8816C13.6248 15.2112 13.1904 14.54 12.7568 13.8688C12.7416 13.8464 12.7256 13.8232 12.6952 13.7784V18.9208H11.2424V13.6912L11.2184 13.6872C11.0512 13.9512 10.8848 14.216 10.7176 14.48C9.7928 15.9416 8.868 17.404 7.9416 18.864C7.9232 18.8928 7.8808 18.9248 7.8496 18.9248C7.2848 18.928 6.7192 18.9272 6.1536 18.9272C6.148 18.9272 6.1424 18.9248 6.1264 18.92C6.1392 18.8968 6.1488 18.8744 6.1624 18.8544C6.8072 17.8704 7.4528 16.8864 8.1 15.904C8.1384 15.8448 8.1416 15.8032 8.1072 15.7408C7.472 14.5672 6.8376 13.3928 6.2064 12.2176C6.1456 12.1048 6.1464 11.9784 6.2064 11.864C6.9008 10.5464 7.5976 9.2296 8.2952 7.9144C8.3256 7.8576 8.308 7.824 8.2776 7.7816C7.7136 6.968 7.1512 6.1552 6.5872 5.3416C6.5296 5.2584 6.4728 5.1744 6.4048 5.076H6.5128C7.0752 5.076 7.6376 5.0776 8.1992 5.0744C8.2656 5.0744 8.3032 5.0928 8.34 5.1496C9.276 6.5832 10.2152 8.0152 11.1536 9.448C11.1752 9.4808 11.1968 9.5128 11.2352 9.5392V5.0816H12.6864V9.5752C12.6928 9.5776 12.6992 9.5816 12.7056 9.584C12.7232 9.56 12.7408 9.5368 12.7568 9.512C13.7048 8.0616 14.6536 6.612 15.5992 5.1592C15.6416 5.0944 15.6848 5.072 15.7608 5.0728C16.3144 5.076 16.868 5.0752 17.4216 5.0752H17.5432C17.4296 5.2384 17.3264 5.3864 17.224 5.5336C16.6992 6.284 16.1744 7.0352 15.6472 7.7856C15.6112 7.8368 15.612 7.8728 15.64 7.9256C16.3368 9.2384 17.032 10.5528 17.7256 11.868C17.7832 11.9784 17.784 12.104 17.7256 12.2136C17.2016 13.1912 16.6728 14.1664 16.1464 15.1424C16.0336 15.3504 15.9224 15.56 15.808 15.7672C15.7856 15.808 15.7856 15.8376 15.8128 15.8776C16.4352 16.796 17.0552 17.716 17.6752 18.6352C17.7376 18.7272 17.7992 18.8184 17.8696 18.9232C17.832 18.9256 17.8048 18.9288 17.7776 18.9288L17.7808 18.9272Z" />
        <path
            d="M16.2303 11.9384C15.8263 11.1688 15.4247 10.3984 15.0223 9.6288C14.9287 9.4488 14.8335 9.2688 14.7351 9.0824C14.7191 9.1008 14.7087 9.1104 14.7007 9.1224C14.1287 9.9544 13.5575 10.7872 12.9839 11.6176C12.9503 11.6664 12.9663 11.6936 12.9919 11.732C13.5431 12.5288 14.0927 13.3256 14.6439 14.1232C14.7415 14.2648 14.8399 14.4056 14.9423 14.5528C14.9583 14.5256 14.9687 14.5088 14.9783 14.4912C15.3967 13.7064 15.8135 12.9208 16.2327 12.136C16.2695 12.0672 16.2671 12.008 16.2303 11.9376V11.9384Z" />
    </g>
</svg>
