<svg viewBox="0 0 24 24" xmlns="http://www.w3.org/2000/svg">
    <circle cx="12" cy="12" r="11" fill="white" />
    <g fill="#F7931A">
        <path
            d="M11.9345 7.86334L11.2239 10.7131C12.0297 10.9141 14.5138 11.7331 14.9161 10.1208C15.3353 8.43908 12.7401 8.06401 11.9343 7.86334H11.9345Z" />
        <path
            d="M12 0C5.37247 0 0 5.37247 0 12C0 18.6275 5.37247 24 12 24C18.6275 24 24 18.6275 24 12C24 5.37247 18.6273 0 12 0ZM17.7362 10.1465H17.7367C17.5493 11.4141 16.8468 12.0275 15.9141 12.2426C17.1947 12.9094 17.8463 13.9317 17.2255 15.7043C16.4551 17.9058 14.6248 18.0915 12.1908 17.6309L11.6001 19.9985L10.1726 19.6427L10.7555 17.3069C10.3855 17.2149 10.0075 17.1174 9.61802 17.0116L9.03312 19.3582L7.60726 19.0024L8.19794 16.6305C7.86454 16.5452 7.52584 16.4547 7.18015 16.3679L5.3226 15.9049L6.03132 14.2709C6.03132 14.2709 7.08307 14.5506 7.06886 14.5299C7.47308 14.6299 7.65231 14.3663 7.72289 14.1907L8.65636 10.4484C8.70888 10.4609 8.75971 10.4739 8.80716 10.4857C8.75031 10.4628 8.69852 10.4481 8.65877 10.438L9.32485 7.76649C9.34219 7.4632 9.23764 7.08066 8.65973 6.93636C8.68214 6.92143 7.62292 6.6786 7.62292 6.6786L8.00257 5.15397L9.97117 5.64564L9.96949 5.65311C10.2653 5.72682 10.5705 5.79668 10.881 5.86727L11.4659 3.52311L12.8925 3.87891L12.3192 6.1773C12.7022 6.26474 13.0876 6.35291 13.463 6.44662L14.0322 4.16341L15.4597 4.51921L14.8751 6.86409C16.6772 7.48488 17.9952 8.41547 17.7365 10.1465H17.7362Z" />
        <path
            d="M10.8654 12.1518L10.0815 15.294C11.0492 15.5342 14.0337 16.4925 14.4748 14.72C14.9358 12.8713 11.8329 12.3934 10.8654 12.1518Z" />
    </g>
</svg>
