<svg xmlns="http://www.w3.org/2000/svg" viewBox="0 0 443.7 443.7">
	<path
		d="M221.85,0C99.33,0,0,99.33,0,221.85s99.33,221.85,221.85,221.85,221.85-99.33,221.85-221.85S344.37,0,221.85,0ZM51.45,223.1c-.3,4.5-4.1,8-8.6,7.7-4.5-.2-7.9-4.1-7.7-8.6s4.1-8,8.6-7.7,8,4.1,7.7,8.6ZM358.65,131.3c5.1-2.6,11.4-.6,14,4.5,2.6,5.1.6,11.4-4.5,14-5.2,2.6-11.4.5-14.1-4.6-2.5-5.1-.5-11.3,4.6-13.9ZM324.05,164.4c3.7,7.3.7,16.2-6.6,19.9s-16.2.7-19.9-6.6-.7-16.2,6.6-19.9c7.3-3.6,16.2-.7,19.9,6.6ZM307.35,222c0,14-11.3,25.3-25.2,25.3h-1.4c-13.9-.7-24.6-12.7-23.8-26.6.7-13.9,12.7-24.6,26.6-23.8,13.4.7,23.9,11.8,23.8,25.1ZM305.05,62.2c2.5-3.7,7.5-4.8,11.3-2.3s4.9,7.5,2.4,11.3-7.5,4.9-11.3,2.4c-3.7-2.5-4.8-7.6-2.4-11.4ZM278.05,100.6c3.8-5.8,11.7-7.4,17.5-3.6,5.8,3.8,7.4,11.7,3.6,17.5s-11.7,7.4-17.5,3.6c-5.9-3.8-7.5-11.6-3.6-17.5ZM266.05,149.5c11.7,7.6,14.9,23.2,7.3,34.9-7.6,11.7-23.2,14.9-34.9,7.3-11.7-7.6-14.9-23.2-7.3-34.9,4.7-7.1,12.6-11.4,21.1-11.4,4.9,0,9.7,1.4,13.8,4.1ZM211.85,58.7c.4-5.7,5.3-10,11-9.7,5.7.4,10.2,5.3,9.8,11-.4,5.7-5.3,10.1-11,9.8-5.7-.4-10.1-5.3-9.8-11.1ZM223.15,105.5c8.2.4,14.5,7.4,14,15.6-.4,8.2-7.4,14.5-15.6,14-8.2-.4-14.4-7.4-14-15.6.4-8.2,7.4-14.5,15.6-14ZM181.45,148.1c12.4-6.3,27.6-1.3,33.9,11.2,1.8,3.6,2.7,7.5,2.7,11.4,0,14-11.3,25.3-25.2,25.3-9.6,0-18.3-5.4-22.6-13.9-6.3-12.4-1.3-27.6,11.2-34ZM188.45,222.3c.1,14-11.2,25.3-25.2,25.3h-1.5c-13.9-.8-24.6-12.7-23.8-26.6.7-13.4,11.8-23.9,25.2-23.9,14-.1,25.3,11.2,25.3,25.2ZM150.65,96.6c6.2-3.1,13.8-.6,16.9,5.6s.6,13.8-5.6,16.9c-6.2,3.1-13.8.6-16.9-5.6-3.1-6.2-.6-13.8,5.6-16.9ZM128.95,59.8c4-2,9-.4,11,3.6s.4,9-3.6,11c-4.1,2.1-9,.4-11-3.7-2-4-.4-8.9,3.6-10.9ZM72.75,135.4c3.2-4.8,9.6-6.1,14.4-3,4.8,3.2,6.1,9.6,3,14.4-3.2,4.8-9.6,6.1-14.4,3-4.8-3.1-6.2-9.6-3-14.4ZM86.55,313.3c-5.2,2.6-11.4.5-14-4.6-2.6-5.2-.5-11.4,4.6-14,5.1-2.6,11.4-.5,14,4.6,2.6,5.2.5,11.4-4.6,14ZM102.95,223.3c-.4,7-6.3,12.3-13.3,11.9-7-.4-12.3-6.3-11.9-13.3.4-7,6.3-12.3,13.3-11.9,7,.4,12.3,6.4,11.9,13.3ZM121.85,163.4c4.4-6.9,13.6-8.8,20.5-4.3,6.9,4.4,8.8,13.6,4.3,20.5-4.4,6.9-13.6,8.8-20.5,4.3s-8.8-13.7-4.3-20.5ZM121.25,280.1c-3.7-7.3-.7-16.2,6.6-19.9,7.3-3.7,16.2-.7,19.9,6.6,3.7,7.3.7,16.2-6.6,19.9-7.3,3.7-16.2.7-19.9-6.6ZM140.05,382.2c-2.5,3.7-7.5,4.8-11.3,2.3-3.7-2.5-4.8-7.5-2.3-11.3,2.5-3.7,7.5-4.8,11.3-2.3,3.8,2.5,4.9,7.6,2.3,11.3ZM167.25,343.9c-3.8,5.8-11.7,7.4-17.5,3.6-5.8-3.8-7.4-11.7-3.6-17.5,3.8-5.8,11.7-7.4,17.5-3.6,5.9,3.8,7.5,11.7,3.6,17.5ZM179.15,295c-11.7-7.7-15-23.3-7.3-35s23.3-14.9,35-7.3c11.7,7.7,14.9,23.3,7.3,35-4.7,7.2-12.6,11.5-21.2,11.4-4.9,0-9.7-1.4-13.8-4.1ZM232.35,385.8c-.4,5.7-5.3,10-11,9.7-5.7-.4-10.2-5.3-9.8-11,.4-5.7,5.3-10.1,11-9.8,5.7.4,10.1,5.3,9.8,11.1ZM236.65,325c-.4,8.2-7.4,14.4-15.6,14-8.2-.4-14.5-7.4-14-15.6.4-8.2,7.4-14.5,15.6-14,8.2.4,14.5,7.5,14,15.6ZM263.85,296.3c-12.4,6.3-27.6,1.3-33.9-11.2-6.3-12.4-1.3-27.6,11.2-33.9,12.4-6.3,27.6-1.3,33.9,11.2q.1.1.1.2c6.2,12.5,1.1,27.5-11.3,33.7ZM294.85,347.9c-6.2,3.2-13.8.7-17-5.5s-.7-13.8,5.5-17c6.3-3.2,13.9-.6,17.1,5.6,3.1,6.2.6,13.8-5.6,16.9ZM316.35,384.7c-4,2-9,.4-11-3.6s-.4-9,3.6-11c4.1-2.1,9-.4,11,3.7,2,4,.4,8.9-3.6,10.9ZM323.45,281.1c-4.4,6.9-13.6,8.8-20.5,4.3-6.9-4.4-8.8-13.6-4.3-20.5,4.4-6.9,13.6-8.8,20.5-4.3,6.9,4.5,8.8,13.7,4.3,20.5ZM342.35,221.3c.4-7,6.3-12.3,13.3-11.9,7,.4,12.3,6.3,11.9,13.3-.4,6.9-6.4,12.3-13.3,11.9-7-.4-12.3-6.3-11.9-13.3ZM372.55,309.1c-3.2,4.8-9.6,6.1-14.4,3-4.8-3.2-6.1-9.6-3-14.4,3.2-4.8,9.6-6.1,14.4-3,4.8,3.1,6.2,9.6,3,14.4ZM401.55,230c-4.5-.2-7.9-4.1-7.7-8.6s4.1-8,8.6-7.7c4.5.3,7.9,4.1,7.7,8.6-.3,4.5-4.1,8-8.6,7.7Z" />
</svg>
