<svg viewBox="0 0 24 24" xmlns="http://www.w3.org/2000/svg">
    <circle cx="12" cy="12" r="11" fill="white"/>
    <path
            d="M12 0C5.37282 0 0 5.37282 0 12C0 18.6272 5.37282 24 12 24C18.6272 24 24 18.6272 24 12C24 5.37282 18.6272 0 12 0ZM2.78296 12.0676C2.76673 12.311 2.56119 12.5003 2.31778 12.4841C2.07437 12.4733 1.89047 12.2623 1.90128 12.0189C1.9121 11.7755 2.12306 11.5862 2.36646 11.6024C2.60987 11.6187 2.79919 11.8242 2.78296 12.0676ZM19.3996 7.1021C19.6755 6.96146 20.0162 7.06964 20.1569 7.3455C20.2975 7.62137 20.1893 7.96214 19.9135 8.10277C19.6322 8.24341 19.2968 8.12982 19.1508 7.85395C19.0156 7.57809 19.1237 7.24273 19.3996 7.1021ZM17.5281 8.89249C17.7282 9.28736 17.5659 9.76876 17.1711 9.9689C16.7762 10.169 16.2948 10.0068 16.0947 9.6119C15.8945 9.21704 16.0568 8.73563 16.4517 8.5355C16.8465 8.34077 17.3279 8.49763 17.5281 8.89249ZM16.6247 12.0081C16.6247 12.7654 16.0135 13.3766 15.2617 13.3766H15.1859C14.4341 13.3387 13.8553 12.6897 13.8986 11.9378C13.9364 11.1859 14.5855 10.6072 15.3374 10.6504C16.0622 10.6883 16.6302 11.2887 16.6247 12.0081ZM16.5003 3.36444C16.6356 3.1643 16.906 3.1048 17.1116 3.24003C17.3171 3.37525 17.3766 3.64571 17.2414 3.85125C17.1062 4.05679 16.8357 4.11629 16.6302 3.98107C16.43 3.84584 16.3705 3.56998 16.5003 3.36444ZM15.0399 5.44151C15.2454 5.12779 15.6728 5.04124 15.9865 5.24679C16.3002 5.45233 16.3867 5.87965 16.1812 6.19337C15.9757 6.5071 15.5483 6.59364 15.2346 6.3881C14.9155 6.18256 14.8289 5.76065 15.0399 5.44151ZM14.3908 8.08654C15.0237 8.49763 15.1968 9.34145 14.7857 9.97431C14.3746 10.6072 13.5308 10.7803 12.8979 10.3692C12.265 9.95808 12.092 9.11427 12.503 8.48141C12.7573 8.09736 13.1846 7.86477 13.6444 7.86477C13.9094 7.86477 14.169 7.9405 14.3908 8.08654ZM11.4591 3.17512C11.4807 2.8668 11.7458 2.63421 12.0541 2.65044C12.3624 2.67208 12.6058 2.93712 12.5842 3.24544C12.5625 3.55375 12.2975 3.79175 11.9892 3.77552C11.6809 3.75389 11.4429 3.48884 11.4591 3.17512ZM12.0703 5.70656C12.5139 5.72819 12.8546 6.10683 12.8276 6.55037C12.8059 6.99391 12.4273 7.33469 11.9838 7.30764C11.5402 7.286 11.2049 6.90737 11.2265 6.46383C11.2481 6.02028 11.6268 5.67951 12.0703 5.70656ZM9.81474 8.01082C10.4855 7.67005 11.3076 7.9405 11.6484 8.61663C11.7458 8.81136 11.7945 9.02231 11.7945 9.23326C11.7945 9.99053 11.1832 10.6018 10.4314 10.6018C9.9121 10.6018 9.44151 10.3097 9.20892 9.8499C8.86815 9.17918 9.13861 8.357 9.81474 8.01082ZM10.1934 12.0243C10.1988 12.7816 9.58756 13.3928 8.83029 13.3928H8.74916C7.9973 13.3496 7.41853 12.7059 7.4618 11.954C7.49966 11.2292 8.10007 10.6613 8.82488 10.6613C9.58215 10.6558 10.1934 11.2671 10.1934 12.0243ZM8.14875 5.22515C8.48411 5.05747 8.8952 5.1927 9.06288 5.52806C9.23056 5.86342 9.09533 6.27451 8.75997 6.44219C8.42461 6.60987 8.01352 6.47464 7.84584 6.13928C7.67816 5.80392 7.81339 5.39283 8.14875 5.22515ZM6.97498 3.23462C7.19135 3.12644 7.4618 3.21298 7.56998 3.42934C7.67816 3.64571 7.59162 3.91616 7.37525 4.02434C7.15348 4.13793 6.88844 4.04598 6.78026 3.82421C6.67208 3.60784 6.75862 3.3428 6.97498 3.23462ZM3.93509 7.32387C4.10818 7.06423 4.45436 6.99391 4.714 7.1616C4.97363 7.33469 5.04395 7.68087 4.87627 7.9405C4.70318 8.20014 4.357 8.27045 4.09736 8.10277C3.83773 7.93509 3.762 7.5835 3.93509 7.32387ZM4.68154 16.9466C4.40027 17.0872 4.06491 16.9736 3.92427 16.6978C3.78364 16.4165 3.89723 16.0811 4.17309 15.9405C4.44895 15.7999 4.78972 15.9135 4.93036 16.1893C5.07099 16.4706 4.9574 16.8059 4.68154 16.9466ZM5.56863 12.0784C5.54699 12.4571 5.22786 12.7437 4.84922 12.7221C4.47059 12.7005 4.18391 12.3813 4.20554 12.0027C4.22718 11.6241 4.54632 11.3374 4.92495 11.359C5.30358 11.3807 5.59026 11.7052 5.56863 12.0784ZM6.59094 8.8384C6.82894 8.46518 7.32657 8.36241 7.6998 8.60581C8.07302 8.84381 8.17579 9.34145 7.93239 9.71467C7.69439 10.0879 7.19675 10.1907 6.82353 9.94726C6.4503 9.70385 6.34753 9.20622 6.59094 8.8384ZM6.55849 15.1508C6.35835 14.7559 6.52062 14.2745 6.91548 14.0744C7.31034 13.8742 7.79175 14.0365 7.99189 14.4314C8.19202 14.8262 8.02975 15.3076 7.63489 15.5078C7.24003 15.7079 6.75862 15.5456 6.55849 15.1508ZM7.57539 20.6734C7.44016 20.8736 7.16971 20.9331 6.96416 20.7978C6.76403 20.6626 6.70453 20.3922 6.83976 20.1866C6.97498 19.9865 7.24544 19.927 7.45098 20.0622C7.65652 20.1974 7.71602 20.4733 7.57539 20.6734ZM9.04665 18.6018C8.84111 18.9155 8.41379 19.002 8.10007 18.7965C7.78634 18.5909 7.6998 18.1636 7.90534 17.8499C8.11089 17.5362 8.5382 17.4496 8.85193 17.6552C9.17106 17.8607 9.25761 18.288 9.04665 18.6018ZM9.69033 15.9567C9.05747 15.5402 8.87897 14.6964 9.29547 14.0636C9.71197 13.4307 10.5558 13.2576 11.1886 13.6687C11.8215 14.0852 11.9946 14.929 11.5835 15.5619C11.3293 15.9513 10.902 16.1839 10.4368 16.1785C10.1717 16.1785 9.9121 16.1028 9.69033 15.9567ZM12.568 20.8682C12.5463 21.1765 12.2813 21.4091 11.973 21.3928C11.6646 21.3712 11.4212 21.1062 11.4429 20.7978C11.4645 20.4895 11.7295 20.2515 12.0379 20.2677C12.3462 20.2894 12.5842 20.5544 12.568 20.8682ZM12.8005 17.5794C12.7789 18.023 12.4003 18.3583 11.9567 18.3367C11.5132 18.3151 11.1724 17.9364 11.1995 17.4929C11.2211 17.0494 11.5997 16.7086 12.0433 16.7356C12.4868 16.7573 12.8276 17.1413 12.8005 17.5794ZM14.2718 16.027C13.6011 16.3678 12.7789 16.0974 12.4381 15.4212C12.0974 14.7505 12.3678 13.9283 13.0439 13.5876C13.7147 13.2468 14.5368 13.5172 14.8776 14.1934C14.8812 14.197 14.883 14.2006 14.883 14.2042C15.2184 14.8803 14.9425 15.6917 14.2718 16.027ZM15.9486 18.8181C15.6133 18.9912 15.2022 18.856 15.0291 18.5206C14.856 18.1853 14.9912 17.7742 15.3266 17.6011C15.6673 17.428 16.0784 17.5686 16.2515 17.904C16.4192 18.2394 16.284 18.6504 15.9486 18.8181ZM17.1116 20.8087C16.8952 20.9168 16.6247 20.8303 16.5166 20.6139C16.4084 20.3976 16.4949 20.1271 16.7113 20.0189C16.9331 19.9053 17.1981 19.9973 17.3063 20.2191C17.4145 20.4354 17.3279 20.7005 17.1116 20.8087ZM17.4956 15.2049C17.2576 15.5781 16.76 15.6809 16.3867 15.4375C16.0135 15.1995 15.9107 14.7018 16.1542 14.3286C16.3922 13.9554 16.8898 13.8526 17.263 14.096C17.6362 14.3394 17.739 14.8371 17.4956 15.2049ZM18.5179 11.9703C18.5396 11.5916 18.8587 11.3049 19.2373 11.3266C19.616 11.3482 19.9026 11.6673 19.881 12.046C19.8594 12.4192 19.5348 12.7113 19.1616 12.6897C18.783 12.668 18.4963 12.3489 18.5179 11.9703ZM20.1515 16.7194C19.9784 16.979 19.6322 17.0494 19.3725 16.8817C19.1129 16.7086 19.0426 16.3624 19.2103 16.1028C19.3834 15.8431 19.7295 15.7728 19.9892 15.9405C20.2488 16.1082 20.3245 16.4598 20.1515 16.7194ZM21.7201 12.4408C21.4767 12.43 21.2928 12.2191 21.3036 11.9757C21.3144 11.7323 21.5254 11.5429 21.7688 11.5592C22.0122 11.5754 22.1961 11.7809 22.1853 12.0243C22.169 12.2677 21.9635 12.4571 21.7201 12.4408Z"
            fill="#0033AD"/>
</svg>
