<svg xmlns="http://www.w3.org/2000/svg" viewBox="0 0 520 520">
        <path class="st0" fill="#9B1C2E" d="M167.1,364.7l38.3-72.6h-59.1c-9,0-16.2-7.3-16.2-16.2v-32.5c0-9,7.3-16.2,16.2-16.2h93.4l72.6-137.5   c2.9-5.4,8.4-8.7,14.3-8.7h122C401.2,31.1,334.2,0,260,0C116.4,0,0,116.4,0,260c0,40.7,9.3,79.1,26,113.4h126.8   C158.8,373.4,164.4,370.1,167.1,364.7z"/>
        <path class="st0" fill="#9B1C2E" d="M367.3,146L367.3,146c-6,0-11.6,3.3-14.3,8.7l-38.3,72.6h59.1c9,0,16.2,7.3,16.2,16.2V276   c0,9-7.3,16.2-16.2,16.2h-93.4l-72.6,137.5c-2.9,5.4-8.4,8.7-14.3,8.7H70.9C118.3,488.6,185.5,520,260,520   c143.6,0,260-116.4,260-260c0-40.9-9.5-79.6-26.3-114H367.3z"/>
        <path class="st1" fill="#FFFFFF" d="M207.8,429.7l72.6-137.5h93.4c8.9,0,16.2-7.2,16.2-16.2v-32.5c0-8.9-7.2-16.2-16.2-16.2h-59.1l38.3-72.6   c2.7-5.4,8.3-8.7,14.3-8.7v0h126.4c-11.7-24-27-45.9-45.2-65h-122c-5.9,0-11.4,3.3-14.3,8.7l-72.6,137.5h-93.4   c-8.9,0-16.2,7.2-16.2,16.2v32.5c0,8.9,7.2,16.2,16.2,16.2h59.1l-38.3,72.6c-2.7,5.4-8.3,8.7-14.3,8.7H26   c11.6,24,26.8,45.8,44.9,65h122.6C199.4,438.4,204.9,435.1,207.8,429.7z"/>
</svg>
