<svg viewBox="0 0 24 24" fill="none" xmlns="http://www.w3.org/2000/svg">
    <g clip-path="url(#clip0_4890_76727)">
        <circle cx="12" cy="12" r="12" fill="white"/>
        <path
                d="M7.04432 17.2563C7.32177 17.2563 7.58382 17.1021 7.70713 16.8555L9.47206 13.5029H6.74374C6.32755 13.5029 5.99615 13.1638 5.99615 12.7553V11.2524C5.99615 10.8362 6.33526 10.5048 6.74374 10.5048H11.0597L14.4123 4.15414C14.5434 3.90751 14.7977 3.75337 15.0751 3.75337H20.7245C18.5356 1.44123 15.4451 0 12.0077 0C5.37958 0 0 5.37187 0 12.0077C0 13.8882 0.4316 15.6763 1.21002 17.264H7.04432V17.2563Z"
                fill="#9B1C2E"/>
        <path
                d="M16.9558 6.74373C16.6783 6.74373 16.4163 6.89787 16.293 7.1445L14.528 10.4971H17.2564C17.6726 10.4971 18.004 10.8362 18.004 11.2447V12.7476C18.004 13.1638 17.6648 13.4952 17.2564 13.4952H12.9404L9.58777 19.8458C9.45675 20.0925 9.20242 20.2466 8.92496 20.2466H3.27563C5.46446 22.5588 8.55502 24 11.9924 24C18.6205 24 24.0001 18.6281 24.0001 11.9923C24.0001 10.1117 23.5685 8.32369 22.7901 6.73602H16.9558V6.74373Z"
                fill="#9B1C2E"/>
    </g>
    <defs>
        <clipPath id="clip0_4890_76727">
            <rect width="24" height="24" fill="white"/>
        </clipPath>
    </defs>
</svg>
