<svg xmlns="http://www.w3.org/2000/svg" viewBox="0 0 300 300">
  <g>
    <path class="cls-1" d="M118,119.25c-1.2-1.72-2.41-3.45-3.66-5.24-.17.25-.27.35-.33.48-5.95,11.66-11.89,23.32-17.85,34.98-.39.77-.32,1.43.08,2.17,2.67,4.99,5.32,10.01,7.99,15.01,2.67,5.04,5.36,10.06,8.11,15.26.24-.32.41-.51.55-.72,7.79-11.33,15.57-22.67,23.38-33.99.47-.67.39-1.1-.05-1.72-6.09-8.73-12.15-17.48-18.22-26.22Z"/>
    <path class="cls-1" d="M150,0C67.16,0,0,67.16,0,150s67.16,150,150,150,150-67.16,150-150S232.84,0,150,0ZM222.26,236.59h0c-6.96,0-13.91,0-20.87.02-.79,0-1.22-.27-1.65-.94-7.99-12.4-16-24.78-24.01-37.15-5.42-8.38-10.85-16.77-16.27-25.16-.19-.28-.39-.57-.77-1.13v64.28h-18.16v-65.37l-.3-.05c-2.09,3.3-4.17,6.61-6.26,9.91-11.56,18.27-23.12,36.55-34.7,54.8-.23.36-.76.76-1.15.76-7.06.04-14.13.03-21.2.03-.07,0-.14-.03-.34-.09.16-.29.28-.57.45-.82,8.06-12.3,16.13-24.6,24.22-36.88.48-.74.52-1.26.09-2.04-7.94-14.67-15.87-29.35-23.76-44.04-.76-1.41-.75-2.99,0-4.42,8.68-16.47,17.39-32.93,26.11-49.37.38-.71.16-1.13-.22-1.66-7.05-10.17-14.08-20.33-21.13-30.5-.72-1.04-1.43-2.09-2.28-3.32h1.35c7.03,0,14.06.02,21.08-.02.83,0,1.3.23,1.76.94,11.7,17.92,23.44,35.82,35.17,53.73.27.41.54.81,1.02,1.14v-55.72h18.14v56.17c.08.03.16.08.24.11.22-.3.44-.59.64-.9,11.85-18.13,23.71-36.25,35.53-54.41.53-.81,1.07-1.09,2.02-1.08,6.92.04,13.84.03,20.76.03h1.52c-1.42,2.04-2.71,3.89-3.99,5.73-6.56,9.38-13.12,18.77-19.71,28.15-.45.64-.44,1.09-.09,1.75,8.71,16.41,17.4,32.84,26.07,49.28.72,1.38.73,2.95,0,4.32-6.55,12.22-13.16,24.41-19.74,36.61-1.41,2.6-2.8,5.22-4.23,7.81-.28.51-.28.88.06,1.38,7.78,11.48,15.53,22.98,23.28,34.47.78,1.15,1.55,2.29,2.43,3.6-.47.03-.81.07-1.15.07Z"/>
    <path class="cls-1" d="M202.88,149.23h0c-5.05-9.62-10.07-19.25-15.1-28.87-1.17-2.25-2.36-4.5-3.59-6.83-.2.23-.33.35-.43.5-7.15,10.4-14.29,20.81-21.46,31.19-.42.61-.22.95.1,1.43,6.89,9.96,13.76,19.92,20.65,29.89,1.22,1.77,2.45,3.53,3.73,5.37.2-.34.33-.55.45-.77,5.23-9.81,10.44-19.63,15.68-29.44.46-.86.43-1.6-.03-2.48Z"/>
  </g>
</svg>
