<svg xmlns="http://www.w3.org/2000/svg" width="23" height="24" viewBox="0 0 23 24" fill="none">
    <g opacity="0.87">
        <path d="M12.1789 14H8.43153C8.18306 14 7.94477 14.1054 7.76908 14.2929C7.59339 14.4804 7.49468 14.7348 7.49468 15C7.49468 15.2652 7.59339 15.5196 7.76908 15.7071C7.94477 15.8946 8.18306 16 8.43153 16H12.1789C12.4274 16 12.6656 15.8946 12.8413 15.7071C13.017 15.5196 13.1157 15.2652 13.1157 15C13.1157 14.7348 13.017 14.4804 12.8413 14.2929C12.6656 14.1054 12.4274 14 12.1789 14ZM15.9263 4H14.8208C14.6275 3.41645 14.2699 2.911 13.7969 2.55294C13.3239 2.19488 12.7587 2.00174 12.1789 2H10.3052C9.72536 2.00174 9.1602 2.19488 8.68722 2.55294C8.21424 2.911 7.8566 3.41645 7.66331 4H6.55784C5.81244 4 5.09757 4.31607 4.5705 4.87868C4.04342 5.44129 3.74731 6.20435 3.74731 7V19C3.74731 19.7956 4.04342 20.5587 4.5705 21.1213C5.09757 21.6839 5.81244 22 6.55784 22H15.9263C16.6717 22 17.3865 21.6839 17.9136 21.1213C18.4407 20.5587 18.7368 19.7956 18.7368 19V7C18.7368 6.20435 18.4407 5.44129 17.9136 4.87868C17.3865 4.31607 16.6717 4 15.9263 4ZM9.36837 5C9.36837 4.73478 9.46707 4.48043 9.64276 4.29289C9.81845 4.10536 10.0567 4 10.3052 4H12.1789C12.4274 4 12.6656 4.10536 12.8413 4.29289C13.017 4.48043 13.1157 4.73478 13.1157 5V6H9.36837V5ZM16.8631 19C16.8631 19.2652 16.7644 19.5196 16.5887 19.7071C16.413 19.8946 16.1747 20 15.9263 20H6.55784C6.30937 20 6.07109 19.8946 5.89539 19.7071C5.7197 19.5196 5.621 19.2652 5.621 19V7C5.621 6.73478 5.7197 6.48043 5.89539 6.29289C6.07109 6.10536 6.30937 6 6.55784 6H7.49468V7C7.49468 7.26522 7.59339 7.51957 7.76908 7.70711C7.94477 7.89464 8.18306 8 8.43153 8H14.0526C14.301 8 14.5393 7.89464 14.715 7.70711C14.8907 7.51957 14.9894 7.26522 14.9894 7V6H15.9263C16.1747 6 16.413 6.10536 16.5887 6.29289C16.7644 6.48043 16.8631 6.73478 16.8631 7V19ZM14.0526 10H8.43153C8.18306 10 7.94477 10.1054 7.76908 10.2929C7.59339 10.4804 7.49468 10.7348 7.49468 11C7.49468 11.2652 7.59339 11.5196 7.76908 11.7071C7.94477 11.8946 8.18306 12 8.43153 12H14.0526C14.301 12 14.5393 11.8946 14.715 11.7071C14.8907 11.5196 14.9894 11.2652 14.9894 11C14.9894 10.7348 14.8907 10.4804 14.715 10.2929C14.5393 10.1054 14.301 10 14.0526 10Z" fill="black" fill-opacity="0.6"/>
    </g>
</svg>

